<svg width="276" height="115" viewBox="0 0 276 115" fill="none" xmlns="http://www.w3.org/2000/svg">
<g filter="url(#filter0_d_144_1036)">
<path d="M13 63C13 57.4772 17.4772 53 23 53H253C258.523 53 263 57.4772 263 63V115H13V63Z" fill="#FFFBEE"/>
</g>
<path d="M85.7676 33H71.8281V32.0332C72.8125 31.998 73.5508 31.9102 74.043 31.7695C74.5352 31.6172 74.8809 31.3418 75.0801 30.9434C75.291 30.5449 75.3965 29.959 75.3965 29.1855V11.502C75.3965 10.6348 75.1152 10.0488 74.5527 9.74414C73.9902 9.43945 73.082 9.24609 71.8281 9.16406V8.19727H86.3477C88.2344 8.19727 89.9688 8.50781 91.5508 9.12891C93.1445 9.75 94.5098 10.6289 95.6465 11.7656C96.7949 12.8906 97.6797 14.2266 98.3008 15.7734C98.9219 17.3203 99.2324 18.9844 99.2324 20.7656C99.2324 22.5117 98.9102 24.1348 98.2656 25.6348C97.6328 27.123 96.7188 28.418 95.5234 29.5195C94.3281 30.6211 92.8926 31.4766 91.2168 32.0859C89.5527 32.6953 87.7363 33 85.7676 33ZM77.1367 29.291V13.0488C77.1367 11.6543 77.0078 10.6758 76.75 10.1133C76.4922 9.53906 75.8242 9.24609 74.7461 9.23438C75.25 9.49219 75.5781 9.81445 75.7305 10.2012C75.8945 10.5762 75.9766 11.1562 75.9766 11.9414V28.8516C75.9766 29.5781 75.9355 30.1465 75.8535 30.5566C75.7715 30.9668 75.6484 31.2773 75.4844 31.4883C75.3203 31.6992 75.0742 31.8809 74.7461 32.0332C75.6367 32.0332 76.2578 31.8223 76.6094 31.4004C76.9609 30.9668 77.1367 30.2637 77.1367 29.291ZM79.8262 14.2441V28.4297C79.8262 29.4492 79.8965 30.1934 80.0371 30.6621C80.1777 31.1191 80.5117 31.4648 81.0391 31.6992C81.5664 31.9219 82.4219 32.0332 83.6055 32.0332C84.8828 32.0332 86.0254 31.9043 87.0332 31.6465C88.041 31.377 89.002 30.9141 89.916 30.2578C90.9941 29.4844 91.8379 28.6523 92.4473 27.7617C93.0566 26.8594 93.4961 25.8398 93.7656 24.7031C94.0469 23.5547 94.1875 22.2773 94.1875 20.8711C94.1875 16.6875 92.9629 13.5527 90.5137 11.4668C89.541 10.6348 88.4629 10.043 87.2793 9.69141C86.0957 9.33984 84.7012 9.16406 83.0957 9.16406C81.9941 9.16406 81.2148 9.32812 80.7578 9.65625C80.3125 9.97266 80.043 10.4355 79.9492 11.0449C79.8672 11.6426 79.8262 12.709 79.8262 14.2441ZM88.0352 32.0332C89.5352 31.8809 90.8828 31.3652 92.0781 30.4863C93.2734 29.6074 94.2168 28.3594 94.9082 26.7422C95.6113 25.125 95.9629 23.1914 95.9629 20.9414C95.9629 19.3242 95.793 17.8477 95.4531 16.5117C95.125 15.1758 94.6387 14.0098 93.9941 13.0137C93.3496 12.0059 92.5645 11.2031 91.6387 10.6055C91.0996 10.2422 90.5371 9.9668 89.9512 9.7793C89.3652 9.5918 88.7266 9.43359 88.0352 9.30469C92.5234 11.0742 94.7676 14.9883 94.7676 21.0469C94.7676 22.8633 94.5273 24.4746 94.0469 25.8809C93.5781 27.2871 92.8398 28.5059 91.832 29.5371C90.8242 30.5566 89.5586 31.3887 88.0352 32.0332ZM108.074 17.3379V20.0449C108.977 19.0254 109.668 18.3223 110.148 17.9355C110.629 17.5371 111.209 17.3379 111.889 17.3379C112.475 17.3379 112.967 17.5488 113.365 17.9707C113.775 18.3809 113.98 18.9023 113.98 19.5352C113.98 20.1914 113.799 20.7422 113.436 21.1875C113.072 21.6211 112.615 21.8379 112.064 21.8379C111.818 21.8379 111.549 21.791 111.256 21.6973C110.963 21.6035 110.717 21.4805 110.518 21.3281C110.4 21.2344 110.277 21.1348 110.148 21.0293C110.02 20.9238 109.902 20.8418 109.797 20.7832C109.703 20.7246 109.598 20.6953 109.48 20.6953C109.258 20.6953 109.035 20.7832 108.812 20.959C108.602 21.123 108.355 21.3574 108.074 21.6621V30.1523C108.074 30.7617 108.156 31.1953 108.32 31.4531C108.496 31.7109 108.76 31.875 109.111 31.9453C109.475 32.0039 110.102 32.0332 110.992 32.0332V33H101.553V32.0332H102.027C103.387 32.0332 104.066 31.4941 104.066 30.416V22.5234C104.066 21.1758 103.229 20.25 101.553 19.7461V19.1484L107.213 17.3379H108.074ZM104.646 22.5234V30.5215C104.646 30.9199 104.582 31.2188 104.453 31.418C104.324 31.6055 104.137 31.8105 103.891 32.0332C104.559 31.9746 105.039 31.7988 105.332 31.5059C105.625 31.2012 105.771 30.6797 105.771 29.9414V22.5234C105.771 21.5156 105.596 20.7832 105.244 20.3262C104.893 19.8691 104.336 19.6406 103.574 19.6406C103.516 19.6406 103.387 19.6523 103.188 19.6758C102.988 19.6992 102.854 19.7109 102.783 19.7109C104.025 20.25 104.646 21.1875 104.646 22.5234ZM109.252 20.0449C109.568 20.0449 109.885 20.1504 110.201 20.3613C110.928 20.9355 111.537 21.2227 112.029 21.2227C112.639 21.2227 113.084 20.8301 113.365 20.0449C113.037 20.209 112.797 20.291 112.645 20.291C112.293 20.291 111.941 20.1738 111.59 19.9395C111.145 19.5762 110.775 19.3945 110.482 19.3945C110.201 19.3945 109.791 19.6113 109.252 20.0449ZM119.377 19.3945C119.377 19.4414 119.453 19.6113 119.605 19.9043C119.758 20.1973 119.834 20.4727 119.834 20.7305C119.834 21.2344 119.623 21.6855 119.201 22.084C118.791 22.4707 118.275 22.6641 117.654 22.6641C117.057 22.6641 116.582 22.5117 116.23 22.207C115.879 21.8906 115.703 21.5273 115.703 21.1172C115.703 20.5078 115.996 19.9102 116.582 19.3242C117.18 18.7383 117.994 18.2637 119.025 17.9004C120.068 17.5254 121.217 17.3379 122.471 17.3379C123.385 17.3379 124.234 17.4961 125.02 17.8125C125.816 18.1289 126.449 18.6094 126.918 19.2539C127.387 19.8984 127.621 20.6777 127.621 21.5918V30.5215C127.621 31.2363 127.826 31.5938 128.236 31.5938C128.482 31.5938 128.781 31.4004 129.133 31.0137L129.783 31.7695C129.209 32.3438 128.676 32.7773 128.184 33.0703C127.703 33.3633 127.129 33.5098 126.461 33.5098C125.688 33.5098 125.084 33.3398 124.65 33C124.217 32.6484 123.912 32.1094 123.736 31.3828C122.119 32.7773 120.52 33.4746 118.938 33.4746C117.812 33.4746 116.916 33.1816 116.248 32.5957C115.592 32.0098 115.264 31.2656 115.264 30.3633C115.264 29.5547 115.463 28.8691 115.861 28.3066C116.271 27.7324 116.805 27.2285 117.461 26.7949C118.129 26.3496 119.107 25.793 120.396 25.125C121.686 24.4453 122.746 23.8652 123.578 23.3848V20.7305C123.578 19.9336 123.396 19.3301 123.033 18.9199C122.67 18.5098 122.125 18.3047 121.398 18.3047C120.766 18.3047 120.268 18.4219 119.904 18.6562C119.553 18.8789 119.377 19.125 119.377 19.3945ZM124.158 21.873V28.8164C124.158 30.1875 124.305 31.2129 124.598 31.8926C124.891 32.5605 125.465 32.8945 126.32 32.8945C126.707 32.8945 127.018 32.8477 127.252 32.7539C126.549 32.6484 126.051 32.3672 125.758 31.9102C125.465 31.4531 125.318 30.7383 125.318 29.7656V21.6973C125.318 20.4785 125.143 19.6406 124.791 19.1836C124.451 18.7148 123.859 18.4336 123.016 18.3398C123.473 18.5742 123.777 18.9141 123.93 19.3594C124.082 19.8047 124.158 20.6426 124.158 21.873ZM123.578 30.2227V24.5801C122.078 25.4238 121.029 26.1855 120.432 26.8652C119.846 27.5449 119.553 28.3652 119.553 29.3262C119.553 29.9707 119.729 30.4688 120.08 30.8203C120.432 31.1719 120.842 31.3477 121.311 31.3477C122.049 31.3477 122.805 30.9727 123.578 30.2227ZM120.484 32.6484C119.418 32.6484 118.562 32.4316 117.918 31.998C117.285 31.5645 116.969 30.9375 116.969 30.1172C116.969 29.5195 117.121 28.957 117.426 28.4297C117.742 27.8906 118.211 27.293 118.832 26.6367C117.883 27.1875 117.145 27.75 116.617 28.3242C116.102 28.8984 115.844 29.5781 115.844 30.3633C115.844 31.0781 116.154 31.6758 116.775 32.1562C117.408 32.625 118.094 32.8594 118.832 32.8594C119.547 32.8594 120.098 32.7891 120.484 32.6484ZM118.832 21.5566C118.41 21.5918 118.088 21.5098 117.865 21.3105C117.643 21.1113 117.531 20.877 117.531 20.6074C117.531 20.2441 117.631 19.9219 117.83 19.6406C118.029 19.3477 118.375 18.9316 118.867 18.3926C118.035 18.8145 117.396 19.2363 116.951 19.6582C116.506 20.0801 116.283 20.5547 116.283 21.082C116.283 21.3164 116.4 21.5391 116.635 21.75C116.881 21.9492 117.168 22.0488 117.496 22.0488C118.059 22.0488 118.504 21.8848 118.832 21.5566ZM153.725 23.0684L149.4 33.4746H148.047L144.074 24.7559L140.436 33.4746H139.082L133.492 21.3281C133.059 20.3555 132.666 19.6758 132.314 19.2891C131.975 18.9023 131.482 18.6855 130.838 18.6387V17.6367H138.783V18.6387C137.893 18.6738 137.447 19.0312 137.447 19.7109C137.447 19.9102 137.482 20.1328 137.553 20.3789C137.623 20.625 137.705 20.8535 137.799 21.0645C137.893 21.2754 138.004 21.5098 138.133 21.7676L141.385 28.7109L143.494 23.5605L142.527 21.5566C142.141 20.7246 141.771 20.0977 141.42 19.6758C141.068 19.2422 140.6 18.8965 140.014 18.6387V17.6367H148.645V18.6387C148 18.6387 147.49 18.7266 147.115 18.9023C146.752 19.0664 146.57 19.4355 146.57 20.0098C146.57 20.3145 146.611 20.5898 146.693 20.8359C146.787 21.082 146.998 21.5742 147.326 22.3125L150.314 28.7109L152.213 24.0352C152.318 23.7891 152.441 23.5137 152.582 23.209C152.723 22.8926 152.846 22.5352 152.951 22.1367C153.057 21.7383 153.109 21.3164 153.109 20.8711C153.109 20.3203 152.951 19.8398 152.635 19.4297C152.318 19.0078 151.867 18.7441 151.281 18.6387V17.6367H157.328V18.6387C155.98 19.002 154.779 20.4785 153.725 23.0684ZM155.307 18.6035H152.688C153.062 18.8496 153.32 19.1309 153.461 19.4473C153.602 19.752 153.701 20.1797 153.76 20.7305C153.865 20.332 154.064 19.9395 154.357 19.5527C154.65 19.1543 154.967 18.8379 155.307 18.6035ZM143.178 21.5918L148.293 32.6836H148.504C148.727 32.3438 148.838 32.0273 148.838 31.7344C148.838 31.3594 148.773 31.0195 148.645 30.7148C148.516 30.3984 148.34 30.0176 148.117 29.5723L144.514 21.7676C144.045 20.7715 143.676 20.0742 143.406 19.6758C143.137 19.2773 142.832 19.0078 142.492 18.8672C142.152 18.7148 141.684 18.6387 141.086 18.6387C141.555 18.9316 141.936 19.3125 142.229 19.7812C142.521 20.25 142.838 20.8535 143.178 21.5918ZM134.652 22.418L139.363 32.6836H139.645C139.82 32.2969 139.908 31.9805 139.908 31.7344C139.908 31.3359 139.592 30.4746 138.959 29.1504L135.479 21.5215C135.104 20.6895 134.799 20.0859 134.564 19.7109C134.33 19.3242 134.049 19.0488 133.721 18.8848C133.404 18.709 132.947 18.627 132.35 18.6387C132.596 18.8145 132.824 19.0547 133.035 19.3594C133.258 19.6641 133.504 20.0859 133.773 20.625C134.043 21.1523 134.336 21.75 134.652 22.418Z" fill="white"/>
<path d="M188 7L188 31M188 7L198.5 17.5M188 7L177.5 17.5" stroke="white" stroke-width="2" stroke-linecap="round" stroke-linejoin="round"/>
<defs>
<filter id="filter0_d_144_1036" x="0" y="42" width="276" height="88" filterUnits="userSpaceOnUse" color-interpolation-filters="sRGB">
<feFlood flood-opacity="0" result="BackgroundImageFix"/>
<feColorMatrix in="SourceAlpha" type="matrix" values="0 0 0 0 0 0 0 0 0 0 0 0 0 0 0 0 0 0 127 0" result="hardAlpha"/>
<feMorphology radius="3" operator="dilate" in="SourceAlpha" result="effect1_dropShadow_144_1036"/>
<feOffset dy="2"/>
<feGaussianBlur stdDeviation="5"/>
<feComposite in2="hardAlpha" operator="out"/>
<feColorMatrix type="matrix" values="0 0 0 0 0 0 0 0 0 0 0 0 0 0 0 0 0 0 0.25 0"/>
<feBlend mode="normal" in2="BackgroundImageFix" result="effect1_dropShadow_144_1036"/>
<feBlend mode="normal" in="SourceGraphic" in2="effect1_dropShadow_144_1036" result="shape"/>
</filter>
</defs>
</svg>
