<svg width="128" height="128" viewBox="0 0 128 128" fill="none" xmlns="http://www.w3.org/2000/svg">
<path d="M37.3516 61.7324V69.1855C37.3516 69.8887 37.4512 70.4336 37.6504 70.8203C37.8613 71.1953 38.1426 71.4648 38.4941 71.6289C38.8457 71.7812 39.3438 71.8809 39.9883 71.9277C40.6328 71.9746 41.2305 72.0098 41.7812 72.0332V73H29.002V72.0332C29.9512 72.0098 30.6602 71.957 31.1289 71.875C31.6094 71.793 31.9844 71.6348 32.2539 71.4004C32.5352 71.166 32.7227 70.8672 32.8164 70.5039C32.9219 70.1289 32.9746 69.6191 32.9746 68.9746V53.4883C32.9746 52.1992 32.916 51.2852 32.7988 50.7461C32.6934 50.207 32.3594 49.8086 31.7969 49.5508C31.2461 49.293 30.3145 49.1641 29.002 49.1641V48.1973H41.0957C41.6348 48.1973 42.9238 48.291 44.9629 48.4785C45.6191 48.5371 46.3164 48.7305 47.0547 49.0586C47.8047 49.3867 48.502 49.8379 49.1465 50.4121C49.8027 50.9746 50.3301 51.6484 50.7285 52.4336C51.127 53.207 51.3262 54.0508 51.3262 54.9648C51.3262 55.9844 51.1211 56.9043 50.7109 57.7246C50.3125 58.5449 49.6914 59.2539 48.8477 59.8516C48.0156 60.4492 46.9609 60.9121 45.6836 61.2402C44.418 61.5684 42.9414 61.7324 41.2539 61.7324H37.3516ZM33.5371 53.2773V69.8008C33.5371 70.9141 33.1094 71.6582 32.2539 72.0332H32.7109C34.0117 72.0332 34.6621 71.418 34.6621 70.1875V54.1035C34.6621 52.6621 34.6504 51.7188 34.627 51.2734C34.6152 50.8281 34.5391 50.4473 34.3984 50.1309C34.2695 49.8145 34.0293 49.5859 33.6777 49.4453C33.3379 49.293 32.8105 49.1875 32.0957 49.1289C32.5645 49.3516 32.8926 49.6035 33.0801 49.8848C33.2676 50.166 33.3906 50.5645 33.4492 51.0801C33.5078 51.5957 33.5371 52.3281 33.5371 53.2773ZM37.3516 60.7656H39.8125C41.3008 60.7656 42.5371 60.5898 43.5215 60.2383C44.5059 59.875 45.2617 59.2715 45.7891 58.4277C46.3164 57.5723 46.5801 56.4297 46.5801 55C46.5801 52.8555 45.8594 51.25 44.418 50.1836C43.8438 49.7617 43.2637 49.4863 42.6777 49.3574C42.0918 49.2285 41.3652 49.1641 40.498 49.1641C39.502 49.1641 38.7812 49.3047 38.3359 49.5859C37.9023 49.8672 37.627 50.2891 37.5098 50.8516C37.4043 51.4141 37.3516 52.2461 37.3516 53.3477V60.7656ZM44.084 60.5723C45.4902 60.3613 46.5391 59.8047 47.2305 58.9023C47.9219 58 48.2676 56.7227 48.2676 55.0703C48.2676 53.3242 47.916 52.0176 47.2129 51.1504C46.5098 50.2715 45.4551 49.6855 44.0488 49.3926C44.7168 49.7324 45.2852 50.1777 45.7539 50.7285C46.2227 51.2793 46.5742 51.9238 46.8086 52.6621C47.043 53.4004 47.1602 54.2031 47.1602 55.0703C47.1602 57.8594 46.1348 59.6934 44.084 60.5723ZM57.9004 59.3945C57.9004 59.4414 57.9766 59.6113 58.1289 59.9043C58.2812 60.1973 58.3574 60.4727 58.3574 60.7305C58.3574 61.2344 58.1465 61.6855 57.7246 62.084C57.3145 62.4707 56.7988 62.6641 56.1777 62.6641C55.5801 62.6641 55.1055 62.5117 54.7539 62.207C54.4023 61.8906 54.2266 61.5273 54.2266 61.1172C54.2266 60.5078 54.5195 59.9102 55.1055 59.3242C55.7031 58.7383 56.5176 58.2637 57.5488 57.9004C58.5918 57.5254 59.7402 57.3379 60.9941 57.3379C61.9082 57.3379 62.7578 57.4961 63.543 57.8125C64.3398 58.1289 64.9727 58.6094 65.4414 59.2539C65.9102 59.8984 66.1445 60.6777 66.1445 61.5918V70.5215C66.1445 71.2363 66.3496 71.5938 66.7598 71.5938C67.0059 71.5938 67.3047 71.4004 67.6562 71.0137L68.3066 71.7695C67.7324 72.3438 67.1992 72.7773 66.707 73.0703C66.2266 73.3633 65.6523 73.5098 64.9844 73.5098C64.2109 73.5098 63.6074 73.3398 63.1738 73C62.7402 72.6484 62.4355 72.1094 62.2598 71.3828C60.6426 72.7773 59.043 73.4746 57.4609 73.4746C56.3359 73.4746 55.4395 73.1816 54.7715 72.5957C54.1152 72.0098 53.7871 71.2656 53.7871 70.3633C53.7871 69.5547 53.9863 68.8691 54.3848 68.3066C54.7949 67.7324 55.3281 67.2285 55.9844 66.7949C56.6523 66.3496 57.6309 65.793 58.9199 65.125C60.209 64.4453 61.2695 63.8652 62.1016 63.3848V60.7305C62.1016 59.9336 61.9199 59.3301 61.5566 58.9199C61.1934 58.5098 60.6484 58.3047 59.9219 58.3047C59.2891 58.3047 58.791 58.4219 58.4277 58.6562C58.0762 58.8789 57.9004 59.125 57.9004 59.3945ZM62.6816 61.873V68.8164C62.6816 70.1875 62.8281 71.2129 63.1211 71.8926C63.4141 72.5605 63.9883 72.8945 64.8438 72.8945C65.2305 72.8945 65.541 72.8477 65.7754 72.7539C65.0723 72.6484 64.5742 72.3672 64.2812 71.9102C63.9883 71.4531 63.8418 70.7383 63.8418 69.7656V61.6973C63.8418 60.4785 63.666 59.6406 63.3145 59.1836C62.9746 58.7148 62.3828 58.4336 61.5391 58.3398C61.9961 58.5742 62.3008 58.9141 62.4531 59.3594C62.6055 59.8047 62.6816 60.6426 62.6816 61.873ZM62.1016 70.2227V64.5801C60.6016 65.4238 59.5527 66.1855 58.9551 66.8652C58.3691 67.5449 58.0762 68.3652 58.0762 69.3262C58.0762 69.9707 58.252 70.4688 58.6035 70.8203C58.9551 71.1719 59.3652 71.3477 59.834 71.3477C60.5723 71.3477 61.3281 70.9727 62.1016 70.2227ZM59.0078 72.6484C57.9414 72.6484 57.0859 72.4316 56.4414 71.998C55.8086 71.5645 55.4922 70.9375 55.4922 70.1172C55.4922 69.5195 55.6445 68.957 55.9492 68.4297C56.2656 67.8906 56.7344 67.293 57.3555 66.6367C56.4062 67.1875 55.668 67.75 55.1406 68.3242C54.625 68.8984 54.3672 69.5781 54.3672 70.3633C54.3672 71.0781 54.6777 71.6758 55.2988 72.1562C55.9316 72.625 56.6172 72.8594 57.3555 72.8594C58.0703 72.8594 58.6211 72.7891 59.0078 72.6484ZM57.3555 61.5566C56.9336 61.5918 56.6113 61.5098 56.3887 61.3105C56.166 61.1113 56.0547 60.877 56.0547 60.6074C56.0547 60.2441 56.1543 59.9219 56.3535 59.6406C56.5527 59.3477 56.8984 58.9316 57.3906 58.3926C56.5586 58.8145 55.9199 59.2363 55.4746 59.6582C55.0293 60.0801 54.8066 60.5547 54.8066 61.082C54.8066 61.3164 54.9238 61.5391 55.1582 61.75C55.4043 61.9492 55.6914 62.0488 56.0195 62.0488C56.582 62.0488 57.0273 61.8848 57.3555 61.5566ZM70.0293 72.1387V67.5332H70.9785C71.8691 69.1152 72.8008 70.3105 73.7734 71.1191C74.7461 71.916 75.6953 72.3145 76.6211 72.3145C77.2188 72.3145 77.752 72.1211 78.2207 71.7344C78.6895 71.3477 78.9238 70.9082 78.9238 70.416C78.9238 69.7715 78.748 69.3262 78.3965 69.0801C77.0723 68.2012 75.8008 67.5273 74.582 67.0586C71.3594 65.8633 69.748 64.1582 69.748 61.9434C69.748 60.6309 70.252 59.5352 71.2598 58.6562C72.2676 57.7773 73.627 57.3379 75.3379 57.3379C76.2051 57.3379 77.0137 57.4316 77.7637 57.6191C78.5137 57.7949 79.3457 58.0527 80.2598 58.3926L80.4355 62.5586H79.5742C78.625 61.1523 77.6816 60.0918 76.7441 59.377C75.8184 58.6621 74.9043 58.3047 74.002 58.3047C73.4395 58.3047 72.9707 58.4922 72.5957 58.8672C72.2324 59.2305 72.0508 59.6348 72.0508 60.0801C72.0508 60.6543 72.2793 61.1113 72.7363 61.4512C73.1934 61.7793 74.1543 62.2715 75.6191 62.9277C77.084 63.584 78.3672 64.2168 79.4688 64.8262C80.1602 65.1895 80.7109 65.6992 81.1211 66.3555C81.5312 67.0117 81.7363 67.7266 81.7363 68.5C81.7363 69.4023 81.4727 70.2344 80.9453 70.9961C80.4297 71.7578 79.709 72.3613 78.7832 72.8066C77.8691 73.252 76.8379 73.4746 75.6895 73.4746C74.0605 73.4746 72.1738 73.0293 70.0293 72.1387ZM70.6797 69.0801V71.2773C71.2656 71.5352 72.2383 71.8457 73.5977 72.209C72.8711 71.7051 72.332 71.2539 71.9805 70.8555C71.6289 70.457 71.1953 69.8652 70.6797 69.0801ZM79.293 71.3125C79.6094 71.0195 79.8438 70.7559 79.9961 70.5215C80.1484 70.2754 80.2246 69.9473 80.2246 69.5371C80.2246 68.2832 79.3105 67.2871 77.4824 66.5488C75.8418 65.8691 74.5469 65.2715 73.5977 64.7559C72.6484 64.2285 71.9629 63.6895 71.541 63.1387C71.1191 62.5762 70.9082 61.8789 70.9082 61.0469C70.9082 60.543 71.0488 59.9805 71.3301 59.3594C71.0254 59.7344 70.7793 60.1094 70.5918 60.4844C70.416 60.8477 70.3281 61.2988 70.3281 61.8379C70.3281 62.9512 70.7266 63.8535 71.5234 64.5449C72.3203 65.2363 73.5039 65.9395 75.0742 66.6543C76.6445 67.3574 77.7754 67.9375 78.4668 68.3945C79.1582 68.8398 79.5039 69.4609 79.5039 70.2578C79.5039 70.5508 79.4336 70.9023 79.293 71.3125ZM79.1523 61.0117L78.9941 58.9902C78.2207 58.6738 77.6172 58.457 77.1836 58.3398C76.75 58.2227 76.1172 58.1641 75.2852 58.1641C76.1641 58.4688 76.8613 58.8262 77.377 59.2363C77.9043 59.6348 78.4961 60.2266 79.1523 61.0117ZM83.5293 72.1387V67.5332H84.4785C85.3691 69.1152 86.3008 70.3105 87.2734 71.1191C88.2461 71.916 89.1953 72.3145 90.1211 72.3145C90.7188 72.3145 91.252 72.1211 91.7207 71.7344C92.1895 71.3477 92.4238 70.9082 92.4238 70.416C92.4238 69.7715 92.248 69.3262 91.8965 69.0801C90.5723 68.2012 89.3008 67.5273 88.082 67.0586C84.8594 65.8633 83.248 64.1582 83.248 61.9434C83.248 60.6309 83.752 59.5352 84.7598 58.6562C85.7676 57.7773 87.127 57.3379 88.8379 57.3379C89.7051 57.3379 90.5137 57.4316 91.2637 57.6191C92.0137 57.7949 92.8457 58.0527 93.7598 58.3926L93.9355 62.5586H93.0742C92.125 61.1523 91.1816 60.0918 90.2441 59.377C89.3184 58.6621 88.4043 58.3047 87.502 58.3047C86.9395 58.3047 86.4707 58.4922 86.0957 58.8672C85.7324 59.2305 85.5508 59.6348 85.5508 60.0801C85.5508 60.6543 85.7793 61.1113 86.2363 61.4512C86.6934 61.7793 87.6543 62.2715 89.1191 62.9277C90.584 63.584 91.8672 64.2168 92.9688 64.8262C93.6602 65.1895 94.2109 65.6992 94.6211 66.3555C95.0312 67.0117 95.2363 67.7266 95.2363 68.5C95.2363 69.4023 94.9727 70.2344 94.4453 70.9961C93.9297 71.7578 93.209 72.3613 92.2832 72.8066C91.3691 73.252 90.3379 73.4746 89.1895 73.4746C87.5605 73.4746 85.6738 73.0293 83.5293 72.1387ZM84.1797 69.0801V71.2773C84.7656 71.5352 85.7383 71.8457 87.0977 72.209C86.3711 71.7051 85.832 71.2539 85.4805 70.8555C85.1289 70.457 84.6953 69.8652 84.1797 69.0801ZM92.793 71.3125C93.1094 71.0195 93.3438 70.7559 93.4961 70.5215C93.6484 70.2754 93.7246 69.9473 93.7246 69.5371C93.7246 68.2832 92.8105 67.2871 90.9824 66.5488C89.3418 65.8691 88.0469 65.2715 87.0977 64.7559C86.1484 64.2285 85.4629 63.6895 85.041 63.1387C84.6191 62.5762 84.4082 61.8789 84.4082 61.0469C84.4082 60.543 84.5488 59.9805 84.8301 59.3594C84.5254 59.7344 84.2793 60.1094 84.0918 60.4844C83.916 60.8477 83.8281 61.2988 83.8281 61.8379C83.8281 62.9512 84.2266 63.8535 85.0234 64.5449C85.8203 65.2363 87.0039 65.9395 88.5742 66.6543C90.1445 67.3574 91.2754 67.9375 91.9668 68.3945C92.6582 68.8398 93.0039 69.4609 93.0039 70.2578C93.0039 70.5508 92.9336 70.9023 92.793 71.3125ZM92.6523 61.0117L92.4941 58.9902C91.7207 58.6738 91.1172 58.457 90.6836 58.3398C90.25 58.2227 89.6172 58.1641 88.7852 58.1641C89.6641 58.4688 90.3613 58.8262 90.877 59.2363C91.4043 59.6348 91.9961 60.2266 92.6523 61.0117Z" fill="white"/>
<circle cx="64" cy="64" r="63" stroke="white" stroke-width="2"/>
</svg>
