<svg width="1200" height="750" viewBox="0 0 1200 750" fill="none" xmlns="http://www.w3.org/2000/svg">
<g clip-path="url(#clip0_117_1036)">
<path opacity="0.5" d="M11.8916 567V525.052L141.668 390.595C155.525 375.988 166.949 363.191 175.937 352.205C185.051 341.094 191.855 330.544 196.35 320.557C200.844 310.569 203.091 299.957 203.091 288.721C203.091 275.987 200.095 265.001 194.102 255.762C188.11 246.399 179.932 239.22 169.57 234.227C159.208 229.108 147.535 226.549 134.551 226.549C120.819 226.549 108.833 229.358 98.5962 234.976C88.3589 240.594 80.4937 248.521 75.0006 258.759C69.5074 268.996 66.7608 280.981 66.7608 294.714H11.5171C11.5171 271.368 16.8854 250.956 27.622 233.478C38.3587 215.999 53.0903 202.454 71.817 192.841C90.5437 183.103 111.83 178.234 135.675 178.234C159.77 178.234 180.994 183.04 199.346 192.653C217.823 202.142 232.242 215.125 242.604 231.605C252.967 247.96 258.148 266.437 258.148 287.036C258.148 301.268 255.463 315.188 250.095 328.796C244.852 342.404 235.676 357.573 222.567 374.302C209.458 390.907 191.231 411.069 167.885 434.79L91.6673 514.565V517.374H264.327V567H11.8916ZM468.823 573.367C439.235 573.242 413.954 565.439 392.98 549.959C372.006 534.478 355.963 511.944 344.852 482.355C333.741 452.767 328.185 417.124 328.185 375.426C328.185 333.853 333.741 298.334 344.852 268.871C356.088 239.408 372.193 216.936 393.167 201.455C414.266 185.974 439.484 178.234 468.823 178.234C498.161 178.234 523.318 186.037 544.292 201.642C565.265 217.123 581.308 239.595 592.419 269.058C603.655 298.397 609.273 333.853 609.273 375.426C609.273 417.249 603.718 452.954 592.606 482.543C581.495 512.006 565.453 534.54 544.479 550.146C523.505 565.627 498.286 573.367 468.823 573.367ZM468.823 523.367C494.791 523.367 515.078 510.695 529.685 485.352C544.416 460.008 551.782 423.366 551.782 375.426C551.782 343.591 548.411 316.686 541.67 294.714C535.053 272.616 525.502 255.887 513.018 244.526C500.658 233.041 485.927 227.298 468.823 227.298C442.98 227.298 422.693 240.032 407.961 265.5C393.23 290.968 385.801 327.61 385.676 375.426C385.676 407.386 388.985 434.415 395.602 456.512C402.343 478.485 411.894 495.152 424.253 506.513C436.613 517.749 451.47 523.367 468.823 523.367ZM821.213 183.477V567H763.16V241.53H760.913L669.152 301.455V246.024L764.845 183.477H821.213ZM1052.49 178.234C1069.59 178.359 1086.45 181.48 1103.05 187.597C1119.65 193.715 1134.64 203.702 1147.99 217.56C1161.48 231.418 1172.21 250.144 1180.2 273.74C1188.32 297.211 1192.44 326.424 1192.56 361.381C1192.56 394.964 1189.19 424.864 1182.45 451.082C1175.71 477.174 1166.03 499.209 1153.42 517.187C1140.94 535.165 1125.77 548.835 1107.92 558.198C1090.07 567.562 1069.97 572.243 1047.62 572.243C1024.77 572.243 1004.48 567.749 986.757 558.76C969.029 549.771 954.609 537.349 943.498 521.494C932.387 505.514 925.458 487.162 922.711 466.438H979.828C983.573 482.917 991.189 496.276 1002.67 506.513C1014.28 516.625 1029.27 521.681 1047.62 521.681C1075.71 521.681 1097.62 509.447 1113.35 484.977C1129.08 460.383 1137.01 426.05 1137.13 381.98H1134.14C1127.64 392.717 1119.53 401.955 1109.79 409.696C1100.18 417.436 1089.38 423.429 1077.39 427.673C1065.41 431.918 1052.61 434.04 1039 434.04C1016.91 434.04 996.807 428.61 978.704 417.748C960.602 406.887 946.182 391.968 935.445 372.991C924.709 354.015 919.34 332.354 919.34 308.01C919.34 283.79 924.834 261.817 935.82 242.092C946.931 222.366 962.412 206.761 982.262 195.275C1002.24 183.665 1025.65 177.984 1052.49 178.234ZM1052.67 226.923C1038.07 226.923 1024.9 230.544 1013.16 237.785C1001.55 244.901 992.375 254.576 985.633 266.811C978.891 278.921 975.521 292.404 975.521 307.261C975.521 322.117 978.767 335.6 985.258 347.71C991.875 359.695 1000.86 369.246 1012.22 376.362C1023.71 383.354 1036.82 386.849 1051.55 386.849C1062.54 386.849 1072.77 384.727 1082.26 380.482C1091.75 376.237 1100.05 370.37 1107.17 362.879C1114.29 355.263 1119.84 346.649 1123.84 337.036C1127.83 327.423 1129.83 317.311 1129.83 306.699C1129.83 292.591 1126.46 279.483 1119.72 267.373C1113.1 255.263 1103.99 245.525 1092.38 238.159C1080.76 230.669 1067.53 226.923 1052.67 226.923Z" fill="white" fill-opacity="0.7"/>
<path d="M190.877 326.675V300.676H313.371V326.675H267.709V449.824H236.539V326.675H190.877ZM341.026 449.824H307.235L358.723 300.676H399.36L450.775 449.824H416.984L379.624 334.759H378.459L341.026 449.824ZM338.914 391.199H418.732V415.814H338.914V391.199ZM500.261 300.676V449.824H468.727V300.676H500.261ZM559.778 449.824L517.102 300.676H551.548L576.236 404.308H577.474L604.711 300.676H634.206L661.37 404.526H662.681L687.369 300.676H721.816L679.14 449.824H648.407L620.005 352.31H618.84L590.51 449.824H559.778ZM749.38 449.824H715.589L767.077 300.676H807.714L859.129 449.824H825.338L787.978 334.759H786.813L749.38 449.824ZM747.268 391.199H827.086V415.814H747.268V391.199ZM1001.83 300.676V449.824H974.595L909.707 355.951H908.614V449.824H877.081V300.676H904.755L969.133 394.476H970.444V300.676H1001.83Z" fill="white" fill-opacity="0.85"/>
</g>
<defs>
<clipPath id="clip0_117_1036">
<rect width="1200" height="638" fill="white" transform="translate(0 56)"/>
</clipPath>
</defs>
</svg>
