<svg width="274" height="758" viewBox="0 0 274 758" fill="none" xmlns="http://www.w3.org/2000/svg">
<g opacity="0.6" filter="url(#filter0_d_52_853)">
<path d="M24 0H270V750H24V0Z" fill="#E0C580"/>
</g>
<g filter="url(#filter1_d_52_853)">
<path fill-rule="evenodd" clip-rule="evenodd" d="M4 0H270V361H112.109C105.238 307.413 59.4555 266 4 266V0ZM111.976 390C104.668 443.101 59.1101 484 4 484V750H270V390H111.976Z" fill="#F7E7B0"/>
</g>
<circle cx="148" cy="612" r="92" fill="#F8EEC9"/>
<circle cx="148" cy="125" r="92" fill="#F8EEC9"/>
<line x1="149" y1="519" x2="149" y2="704" stroke="#F6E7B0" stroke-width="2"/>
<line x1="240" y1="613" x2="55" y2="613" stroke="#F6E7B0" stroke-width="2"/>
<line x1="149" y1="31" x2="149" y2="216" stroke="#F6E7B0" stroke-width="2"/>
<line x1="240" y1="125" x2="55" y2="125" stroke="#F6E7B0" stroke-width="2"/>
<path d="M176.33 79.0156C178.689 78.8668 180.982 79.7974 182.899 81.1109C184.351 82.0772 185.806 83.0911 186.955 84.4185C187.385 84.9701 187.832 85.6149 187.776 86.3491C187.723 87.0019 187.137 87.3848 186.701 87.7896C185.756 88.615 185.354 89.8611 185.117 91.0535C183.433 99.5953 181.796 108.149 179.976 116.663C179.607 118.179 179.228 119.75 178.31 121.04C177.891 121.651 177.095 122.12 176.357 121.786C175.415 121.368 174.816 120.469 174.226 119.665C166.776 119.743 159.337 120.221 151.901 120.653C151.77 126.27 151.565 131.886 151.422 137.505C157.113 137.132 162.819 136.854 168.47 136.066C169.314 135.983 170.111 135.669 170.943 135.54C173.746 135.515 176.611 136.247 178.911 137.886C179.675 138.421 180.401 139.1 180.752 139.983C180.909 140.362 180.74 140.81 180.393 141.019C179.822 141.356 179.139 141.418 178.49 141.453C175.576 141.582 172.669 141.279 169.77 141.001C163.641 140.626 157.496 141.189 151.422 141.991C151.422 147.773 151.426 153.553 151.42 159.334C158.526 159.051 165.635 158.886 172.746 158.848C176.788 158.632 180.81 158.134 184.812 157.533C185.776 157.39 186.758 157.215 187.731 157.404C188.871 157.624 189.965 158.041 191.01 158.543C191.748 158.9 192.471 159.291 193.173 159.717C193.995 160.213 194.8 160.737 195.594 161.277C195.899 161.491 196.215 161.702 196.52 161.92C197.219 162.422 197.891 162.997 198.314 163.761C198.294 163.92 198.253 164.239 198.233 164.398C196.618 165.104 194.842 164.646 193.159 164.549L192.923 164.527C188.865 164.18 184.8 163.932 180.73 163.813C176.151 163.66 171.566 163.652 166.984 163.827C160.923 163.831 154.857 163.938 148.803 164.295C148.424 164.317 148.045 164.339 147.666 164.362C142.517 164.668 137.374 165.142 132.273 165.904C125.775 166.954 119.317 168.247 112.815 169.275C111.557 169.456 110.275 169.809 109.007 169.507C106.699 169.009 104.844 167.406 103.257 165.745C101.844 164.289 100.505 162.741 99.4373 161.011C99.1675 160.481 98.848 159.85 99.0801 159.253C99.9036 159.382 100.519 160.007 101.237 160.38C103.904 161.934 106.711 163.468 109.816 163.87C112.14 164.17 114.449 163.658 116.749 163.382C126.466 162.051 136.2 160.85 145.956 159.829C145.948 154.045 145.956 148.263 145.95 142.479C139.204 142.822 132.482 143.761 125.924 145.392C125.233 145.6 124.612 146.003 123.894 146.12C122.338 146.388 120.706 145.914 119.448 144.985C117.523 143.725 115.749 142.187 114.412 140.304C114.027 139.733 113.582 139.108 113.676 138.382C114.694 138.584 115.529 139.231 116.461 139.648C118.483 140.539 120.702 141.171 122.93 140.898C130.622 140.1 138.289 139.084 145.946 138.003C145.958 133.584 145.948 129.163 145.952 124.745C145.954 124.328 145.954 123.911 145.952 123.495C145.948 122.715 145.954 121.933 145.946 121.153C139.621 121.965 133.295 122.78 126.977 123.663C126.753 123.687 126.531 123.715 126.309 123.749C125.89 123.808 125.475 123.874 125.057 123.927C124.747 123.965 124.44 124.008 124.132 124.06C124.013 124.08 123.773 124.118 123.654 124.137C123.489 124.915 123.362 125.88 122.585 126.296C121.559 126.636 120.612 125.866 119.848 125.278C118.047 123.641 116.884 121.306 116.664 118.883C116.277 108.57 114.684 98.3334 112.467 88.2658C111.973 86.4185 110.938 84.7459 109.622 83.3709C109.217 82.9363 108.737 82.5117 108.644 81.8927C109.221 81.8173 109.812 81.8252 110.374 81.9958C112.509 82.5951 114.604 83.3213 116.688 84.0792C117.102 84.2201 117.521 84.4006 117.969 84.3967C134.652 83.1705 151.309 81.593 167.956 79.9442C170.748 79.6387 173.54 79.3252 176.33 79.0156ZM149.537 85.9463C148.865 85.9701 148.198 86.0693 147.537 86.1983C146.789 86.2757 146.041 86.3689 145.289 86.4146C147.289 86.605 149.337 87.0475 151.031 88.1765C151.762 88.6348 152.379 89.3114 152.567 90.1745C153.293 93.0198 152.567 95.9465 152.408 98.8156C158.655 98.3235 164.901 97.8136 171.149 97.3453C173.167 97.4425 175.179 97.6727 177.195 97.8195C177.516 94.3056 177.828 90.7896 178.157 87.2757C178.211 86.6209 178.377 85.9304 178.119 85.2975C177.802 84.4998 176.949 84.0435 176.131 83.9602C167.234 84.0534 158.367 84.9106 149.537 85.9463ZM119.178 88.9027C119.668 93.3631 120.164 97.8215 120.664 102.28C129.106 101.415 137.535 100.433 145.948 99.3156C145.873 96.377 146.277 93.3433 145.281 90.5099C144.783 89.0515 143.883 87.5178 142.384 86.9424C134.613 86.9939 126.874 87.8789 119.178 88.9027ZM152.405 102.804C152.25 107.429 152.075 112.052 151.916 116.677C159.518 116.33 167.121 116.018 174.724 115.677C175.197 111.05 175.716 106.429 176.199 101.804C168.268 102.149 160.335 102.46 152.405 102.804ZM121.66 105.766C121.985 110.558 122.309 115.35 122.652 120.141C130.416 119.292 138.18 118.447 145.952 117.667C145.95 112.715 145.956 107.76 145.95 102.806C137.92 104.282 129.801 105.201 121.66 105.766Z" fill="#836C30"/>
<path d="M114.844 559.382C114.516 559.367 114.197 559.407 113.89 559.547C113.792 559.763 113.802 559.962 113.927 560.162C114.4 561.044 115.338 561.496 116.083 562.106C117.333 563.122 118.479 564.312 119.275 565.721C119.771 566.919 119.721 568.262 119.77 569.537C119.618 575.266 119.43 580.997 119.266 586.727C115.848 587.86 112.444 589.088 108.909 589.81C105.483 590.679 101.665 590.457 98.5433 588.709C98.167 588.553 97.6422 588.26 97.3049 588.645C97.3522 589.675 98.1175 590.442 98.8002 591.131C100.702 593.088 103.194 594.373 105.781 595.167C106.24 595.282 106.715 595.51 107.194 595.387C108.376 595.052 109.511 594.552 110.716 594.295C113.402 593.701 116.07 593.055 118.743 592.406C118.757 598.739 118.76 605.077 118.752 611.413C113.377 614.417 108.009 617.446 102.644 620.467C100.993 621.306 98.8175 621.149 97.4336 619.861C96.8331 619.405 96.0748 618.59 95.2687 619.036C94.88 619.718 94.9745 620.572 95.1678 621.302C95.6798 622.659 96.4252 623.934 97.4061 625.008C98.6933 626.461 99.8455 628.087 101.452 629.218C101.822 629.457 102.361 629.734 102.772 629.438C104.202 628.184 105.364 626.623 106.955 625.558C110.762 622.784 114.503 619.927 118.248 617.073C118.227 626.795 118.249 636.519 118.238 646.244C118.206 646.984 118.205 647.852 117.615 648.39C116.981 648.898 116.119 648.602 115.459 648.308C113.308 647.312 111.159 646.3 109.01 645.299C108.22 644.945 107.448 644.459 106.552 644.473C106.617 645.051 106.692 645.702 107.175 646.097C109.894 648.519 112.391 651.189 114.606 654.078C115.539 655.507 116.165 657.117 116.798 658.692C117.096 659.397 117.276 660.184 117.816 660.756C118.129 661.116 118.717 661.053 119.027 660.728C119.7 660.087 120.066 659.21 120.486 658.398C122.172 654.9 123.299 651.173 124.284 647.427C124.504 646.765 124.276 646.075 124.21 645.409C123.797 642.616 123.915 639.789 123.898 636.978C123.902 628.969 123.888 620.965 123.898 612.954C127.271 610.151 130.636 607.33 133.934 604.441C134.37 604.025 134.76 603.22 134.347 602.68C133.835 602.439 133.222 602.581 132.778 602.9C129.823 604.88 126.857 606.845 123.898 608.826C124.081 602.836 124.238 596.845 124.421 590.855C127.958 589.835 131.521 588.878 134.998 587.663C135.853 587.336 136.773 587.01 137.392 586.296C138.087 585.505 137.308 584.42 136.521 584.058C134.462 583.071 132.077 582.401 129.815 583.049C128.18 583.563 126.568 584.141 124.935 584.663C125.108 580.029 125.274 575.392 125.449 570.757C125.469 569.829 125.769 568.92 126.238 568.124C126.602 567.501 126.995 566.799 126.825 566.051C126.592 564.93 125.701 564.111 124.807 563.473C122.08 561.639 119.001 560.349 115.826 559.529C115.509 559.465 115.173 559.397 114.844 559.382ZM160.445 563.317C160.143 563.281 159.852 563.327 159.638 563.583C159.485 564.251 159.668 565.062 160.252 565.473C161.365 566.398 162.487 567.308 163.536 568.307C163.736 568.511 163.971 568.721 164.059 569.005C164.427 570.105 164.513 571.273 164.509 572.426C164.5 578.91 164.514 585.39 164.499 591.874C158.647 592.778 152.797 593.748 146.914 594.433C143.932 594.743 140.842 594.007 138.383 592.277C137.918 591.936 137.331 591.595 136.741 591.828C136.451 592.352 136.718 592.967 137.08 593.378C138.069 594.579 139.225 595.63 140.401 596.644C141.84 597.902 143.637 598.68 145.492 599.093C146.625 601.69 147.658 604.336 148.547 607.028C148.849 607.976 149.22 608.908 149.354 609.899C149.693 610.52 149.851 611.213 150.042 611.89C152.298 619.952 153.714 628.229 154.656 636.538C154.718 637.513 155.535 638.183 156.179 638.823C156.726 639.365 157.686 639.688 158.344 639.162C159.648 637.938 160.008 636.019 159.839 634.3C159.288 627 157.488 619.863 155.39 612.871C155.147 611.983 154.911 611.099 154.555 610.248C154.594 609.96 154.625 609.666 154.656 609.376C154.52 609.36 154.251 609.331 154.115 609.312C152.854 606.69 151.141 604.326 149.473 601.955C148.801 601.194 148.187 600.384 147.556 599.588C148.054 599.479 148.549 599.361 149.042 599.24C149.079 599.231 149.161 599.221 149.198 599.212C152.612 598.451 156.03 597.721 159.472 597.102C164.864 596.232 170.228 594.963 175.718 594.983C177.587 595.981 178.806 598.075 178.874 600.184C178.921 601.967 178.72 603.74 178.58 605.514C178.276 608.344 178.021 611.188 177.507 613.99C175.936 623.106 174.119 632.178 172.205 641.226C164.781 642.281 157.352 643.319 149.941 644.446C149.524 644.507 149.109 644.577 148.694 644.638C146.471 644.986 144.245 645.31 142.025 645.666C140.447 645.947 138.842 645.811 137.254 645.721C135.208 645.552 133.108 645.319 131.218 644.464C130.447 644.135 129.835 643.447 128.953 643.418C128.656 644.691 129.557 645.727 130.228 646.693C131.583 648.486 133.241 650.142 135.328 651.06C136.455 651.565 137.536 652.218 138.741 652.518C139.876 652.317 140.968 651.913 142.089 651.637C150.657 649.156 159.443 647.469 168.306 646.482C178.859 645.004 189.559 644.721 200.192 645.317C201.077 645.366 202.024 645.404 202.834 644.987C203.61 644.567 203.87 643.471 203.504 642.712C202.821 642.027 202.192 641.235 201.394 640.694C197.816 639.945 194.267 639.065 190.726 638.162C188.468 638.738 186.282 639.698 183.937 639.877C181.414 640.219 178.882 640.45 176.351 640.703C178.243 634.147 179.867 627.516 181.323 620.852C182.051 617.862 182.878 614.892 183.552 611.89C183.719 611.201 183.802 610.468 184.222 609.871C184.211 609.528 184.178 609.185 184.24 608.844C184.571 607.035 185.088 605.244 185.919 603.597C186.25 602.957 186.988 602.411 186.753 601.597C186.418 600.234 185.316 599.258 184.341 598.322C182.747 596.755 180.841 595.553 178.91 594.451C184.347 594.04 189.806 593.953 195.257 593.928C196.106 593.885 196.957 593.737 197.761 593.451C198.29 593.268 198.823 592.931 199.018 592.378C199.105 591.545 198.529 590.775 197.807 590.415C195.159 588.891 192.106 588.358 189.157 587.718C188.46 587.58 187.786 587.317 187.075 587.278C185.275 587.781 183.498 588.397 181.681 588.837C177.87 589.643 174.04 590.384 170.168 590.828C170.532 585.095 170.884 579.361 171.241 573.628C171.295 572.735 171.694 571.909 172.278 571.243C172.724 570.778 172.732 570.055 172.416 569.518C171.741 568.315 170.645 567.384 169.508 566.638C166.789 565.581 164.052 564.588 161.325 563.556C161.061 563.476 160.747 563.354 160.445 563.317Z" fill="#836C30"/>
<defs>
<filter id="filter0_d_52_853" x="20" y="0" width="254" height="758" filterUnits="userSpaceOnUse" color-interpolation-filters="sRGB">
<feFlood flood-opacity="0" result="BackgroundImageFix"/>
<feColorMatrix in="SourceAlpha" type="matrix" values="0 0 0 0 0 0 0 0 0 0 0 0 0 0 0 0 0 0 127 0" result="hardAlpha"/>
<feOffset dy="4"/>
<feGaussianBlur stdDeviation="2"/>
<feComposite in2="hardAlpha" operator="out"/>
<feColorMatrix type="matrix" values="0 0 0 0 0 0 0 0 0 0 0 0 0 0 0 0 0 0 0.25 0"/>
<feBlend mode="normal" in2="BackgroundImageFix" result="effect1_dropShadow_52_853"/>
<feBlend mode="normal" in="SourceGraphic" in2="effect1_dropShadow_52_853" result="shape"/>
</filter>
<filter id="filter1_d_52_853" x="0" y="0" width="274" height="758" filterUnits="userSpaceOnUse" color-interpolation-filters="sRGB">
<feFlood flood-opacity="0" result="BackgroundImageFix"/>
<feColorMatrix in="SourceAlpha" type="matrix" values="0 0 0 0 0 0 0 0 0 0 0 0 0 0 0 0 0 0 127 0" result="hardAlpha"/>
<feOffset dy="4"/>
<feGaussianBlur stdDeviation="2"/>
<feComposite in2="hardAlpha" operator="out"/>
<feColorMatrix type="matrix" values="0 0 0 0 0 0 0 0 0 0 0 0 0 0 0 0 0 0 0.2 0"/>
<feBlend mode="normal" in2="BackgroundImageFix" result="effect1_dropShadow_52_853"/>
<feBlend mode="normal" in="SourceGraphic" in2="effect1_dropShadow_52_853" result="shape"/>
</filter>
</defs>
</svg>
