<svg xmlns="http://www.w3.org/2000/svg" fill="none" viewBox="4 0 266 750">
<g opacity="0.6" filter="url(#filter0_d_52_508)">
<path d="M4 0H253V750H4V0Z" fill="#E1C680"/>
</g>
<g filter="url(#filter1_d_52_508)">
<path fill-rule="evenodd" clip-rule="evenodd" d="M4 0H270V266C214.544 266 168.762 307.413 161.891 361H4V0ZM4 390V750H270V484C214.89 484 169.332 443.101 162.024 390H4Z" fill="#F7E7B0"/>
</g>
<circle cx="126" cy="125" r="92" fill="#F8EEC9"/>
<circle cx="126" cy="612" r="92" fill="#F8EEC9"/>
<line x1="128" y1="519" x2="128" y2="704" stroke="#F6E7B0" stroke-width="2"/>
<line x1="219" y1="613" x2="34" y2="613" stroke="#F6E7B0" stroke-width="2"/>
<line x1="128" y1="33" x2="128" y2="218" stroke="#F6E7B0" stroke-width="2"/>
<line x1="219" y1="127" x2="34" y2="127" stroke="#F6E7B0" stroke-width="2"/>
<path d="M134.564 67.0383C134.725 68.7652 136.485 69.8506 136.576 71.597C136.372 72.2721 135.838 72.78 135.323 73.2344C134.063 74.2927 132.581 75.0364 131.087 75.7008C127.034 77.5013 122.716 78.5616 118.452 79.7237C109.991 82.0544 101.46 84.1288 92.8795 85.9704C92.2498 86.1067 91.6004 86.2356 91.0399 86.5667C91.0615 86.649 91.0991 86.8159 91.1207 86.9003C91.9279 87.4911 92.9828 87.2598 93.9004 87.1732C107.83 85.5415 121.633 83.0484 135.414 80.4818C137.073 80.1485 138.787 79.9867 140.387 79.4002C142.053 78.7986 143.829 78.7114 145.582 78.6422C146.422 78.5686 147.501 78.3359 147.806 77.4292C148.068 76.3126 147.45 75.1998 146.653 74.4575C145.111 73.0076 143.376 71.7563 141.569 70.6569C139.786 69.5533 138.035 68.4034 136.202 67.382C135.706 67.0898 135.14 66.9193 134.564 67.0383ZM119.746 84.6968C119.143 84.5734 118.469 84.7774 118.119 85.3033C117.92 86.1169 118.674 86.7015 119.211 87.1732C120.31 88.0345 121.259 89.1122 121.828 90.3976C122.716 92.2933 122.587 94.4585 122.486 96.4927C121.52 96.7091 120.546 96.8741 119.574 97.0385C110.308 98.6507 101.036 100.252 91.798 102.012C90.2571 102.278 88.7483 102.794 87.1685 102.77C85.3572 102.765 83.578 102.347 81.8619 101.799C80.9184 101.507 80.0293 100.999 79.0317 100.9C78.8824 101.696 79.5165 102.275 79.9515 102.851C81.7368 105.08 83.9848 107.061 86.744 107.955C87.7027 108.243 88.7657 108.567 89.7461 108.177C92.0832 107.329 94.4007 106.428 96.7811 105.701C102.754 104.227 108.803 103.075 114.854 101.971C114.402 102.636 113.868 103.25 113.338 103.851C108.956 109.038 104.427 114.109 99.6012 118.892C97.6276 120.757 95.5447 122.496 93.4455 124.219C93.0863 124.515 92.7239 124.802 92.3539 125.088C87.7942 128.659 83.0445 132.001 78.1624 135.115C77.5067 135.502 77.0736 136.173 77 136.934C77.6514 136.915 78.3059 136.788 78.8902 136.49C80.3011 135.799 81.7238 135.135 83.1153 134.407C88.8955 131.419 94.6472 128.296 99.8539 124.37C100.109 124.171 100.365 123.979 100.622 123.784C105.504 120.155 109.787 115.793 113.914 111.341C116.887 108.067 119.836 104.761 122.587 101.294C122.277 108.424 122.128 115.565 121.444 122.672C121.436 123.315 121.139 123.883 120.929 124.471C120.951 125.032 121.036 125.595 120.979 126.159C120.834 127.847 121.479 129.476 122.152 130.991C122.741 132.205 123.347 133.467 124.386 134.367C124.871 134.826 125.715 134.987 126.215 134.468C126.999 133.68 127.342 132.568 127.61 131.517C128.233 128.764 128.211 125.909 128.055 123.107C127.592 115.903 127.607 108.674 127.964 101.466C129.053 102.282 130.018 103.24 131.057 104.114C138.432 110.561 145.613 117.218 152.759 123.915C152.824 123.976 152.957 124.107 153.021 124.168C154.588 125.62 156.135 127.093 157.701 128.545C158.76 129.512 159.717 130.641 161.037 131.264C162.175 131.801 163.408 132.17 164.666 132.285C170.091 132.488 175.531 132.687 180.95 132.254C181.517 132.178 182.09 132.03 182.577 131.718C182.57 131.636 182.555 131.477 182.546 131.395C182.047 130.971 181.411 130.781 180.818 130.526C176.665 128.879 172.595 127.018 168.598 125.027C168.197 124.83 167.796 124.633 167.405 124.421C165.916 123.616 164.415 122.835 162.947 121.985C159.82 120.254 156.876 118.221 153.759 116.466C148.299 113.267 142.92 109.913 137.718 106.307C134.792 104.221 131.832 102.159 129.147 99.7677C140.129 98.3892 151.193 97.6854 162.26 97.6551C163.565 97.6594 164.957 97.7592 166.152 97.1295C166.712 96.8676 167.333 96.3708 167.203 95.674C166.93 94.5097 165.844 93.7804 164.838 93.2784C163.048 92.3868 161.236 91.393 159.228 91.1355C156.871 91.0706 154.831 92.5783 152.526 92.8336C145.248 93.5716 138.003 94.5341 130.764 95.5729C129.838 95.627 128.894 95.5414 128.004 95.866C127.983 94.3295 128.063 92.7371 128.702 91.3175C128.888 90.9149 129.103 90.5229 129.298 90.1247C129.577 89.5859 129.538 88.9524 129.49 88.366C129.456 88.1755 129.455 87.9016 129.227 87.8302C127.974 87.2676 126.818 86.5086 125.498 86.1018C123.621 85.4937 121.69 85.0279 119.746 84.6968ZM150.707 134.508C148.937 134.907 147.178 135.359 145.38 135.61C140.333 136.314 135.281 136.983 130.238 137.713C129.68 137.788 129.119 137.846 128.56 137.905C120.337 138.905 112.094 139.845 103.816 140.28C101.518 140.46 99.361 139.478 97.1147 139.188C96.6667 139.184 95.9464 139.048 95.7906 139.613C95.5807 140.318 96.1122 140.943 96.4779 141.493C97.4214 142.744 98.1216 144.17 98.5803 145.668C99.5455 148.658 99.3922 151.844 99.7124 154.937C100.007 159.758 100.346 164.587 100.208 169.421C100.206 170.438 99.9334 171.428 99.9247 172.443C100.078 173.484 100.505 174.462 100.834 175.456C101.579 177.602 102.6 179.743 104.281 181.318C104.883 181.894 105.89 182.282 106.636 181.743C107.344 181.152 107.301 180.135 107.465 179.307C117.229 179.203 126.944 177.995 136.596 176.608C138.563 176.275 140.56 175.989 142.56 176.113C144.765 176.535 147.025 177.308 148.655 178.923C149.456 179.734 150.666 180.243 151.809 179.964C152.67 179.708 153.082 178.804 153.264 177.993C155.034 167.843 156.411 157.619 157.095 147.335C157.134 145.704 158.271 144.409 159.076 143.08C159.611 142.162 160.864 141.467 160.663 140.27C160.291 138.993 159.097 138.205 158.045 137.511C156.537 136.599 154.982 135.764 153.385 135.024C152.55 134.665 151.631 134.26 150.707 134.508ZM147.866 139.835C148.468 139.836 149.042 139.969 149.484 140.442C150.648 141.794 150.658 143.705 150.656 145.395C150.492 148.37 150.312 151.354 150.131 154.33C148.41 153.477 146.754 152.427 144.854 152.005C143.069 151.527 141.161 151.671 139.406 152.207C135.24 153.599 130.924 154.467 126.589 155.149C119.563 156.302 112.413 156.596 105.302 156.513C104.926 154.191 104.878 151.833 104.625 149.498C104.517 147.709 104.228 145.935 104.231 144.141C118.178 142.804 132.129 141.451 146.067 140.007C146.63 139.966 147.265 139.835 147.866 139.835ZM150.09 156.17C149.599 161.541 149.068 166.939 147.947 172.221C146.078 172.096 144.228 171.703 142.348 171.736C141.313 171.775 140.302 172.036 139.285 172.211C137.285 172.555 135.283 172.885 133.271 173.151C132.052 173.302 130.837 173.612 129.601 173.525C128.898 173.441 128.263 173.799 127.59 173.929C124.179 174.548 120.715 174.661 117.27 174.97C113.81 175.159 110.348 175.513 106.879 175.476C106.396 170.464 105.825 165.445 105.807 160.405C111.436 160.576 117.066 160.23 122.678 159.819C128.3 159.338 133.915 158.822 139.517 158.141C141.854 157.836 144.223 157.688 146.532 157.191C147.753 156.979 148.902 156.505 150.09 156.17Z" fill="#836C30"/>
<path d="M130.305 566.001C129.751 565.992 129.203 566.024 128.661 566.153C128.633 566.597 128.753 567.02 128.956 567.409C129.251 567.496 129.549 567.59 129.841 567.687C131.079 568.109 132.424 568.63 133.145 569.794C133.554 570.412 133.307 571.171 133.162 571.834C132.433 574.397 131.048 576.709 129.765 579.022C129.715 579.102 129.622 579.255 129.572 579.334C129.093 580.074 128.681 580.859 128.13 581.551C123.506 587.649 118.477 593.425 113.365 599.114C113.063 599.428 112.827 599.801 112.674 600.21C113.641 600.303 114.592 599.966 115.345 599.367C120.667 595.551 125.36 590.941 130.001 586.346C133.306 589.638 136.627 592.924 139.643 596.485C137.248 599.679 134.512 602.617 131.712 605.46C130.99 606.226 130.161 606.887 129.504 607.711L129.437 607.694C128.019 608.998 126.595 610.292 125.13 611.545C124.812 611.817 124.484 612.079 124.161 612.346C118.692 616.93 112.787 620.979 106.673 624.651C106.78 624.988 106.904 625.323 107.061 625.645C111.801 623.315 116.493 620.882 121.085 618.271C124.723 616.258 128.246 614.014 131.392 611.284L131.544 611.149C135.589 607.784 139.349 604.1 143.09 600.404C150.957 607.376 158.652 614.534 166.325 621.718C166.916 622.287 167.656 622.708 168.466 622.872C169.723 623.2 170.981 622.781 172.225 622.603C175.811 622.169 179.36 621.506 182.903 620.816C183.242 620.742 183.603 620.654 183.872 620.42C184.298 619.906 183.527 619.364 183.071 619.223C178.85 618.063 174.632 616.774 170.725 614.765C169.332 614.019 167.964 613.221 166.612 612.405C166.331 612.231 166.055 612.059 165.777 611.882C158.813 607.44 152.379 602.237 146.006 596.999C147.854 595.1 149.413 592.954 150.928 590.788C153.593 586.927 156.041 582.922 158.42 578.879C159.117 577.895 160.324 577.463 161.176 576.646C161.792 575.931 161.406 574.909 160.78 574.345C158.715 572.342 156.141 570.962 153.557 569.743C153.16 569.575 152.739 569.287 152.293 569.465C151.226 569.711 150.47 570.604 149.453 570.949C146.574 571.739 143.631 572.256 140.696 572.777C141.018 571.077 140.068 569.463 138.766 568.446C136.972 566.679 134.367 566.284 131.965 566.094C131.416 566.062 130.858 566.011 130.305 566.001ZM93.3995 567.013C93.1225 566.937 92.843 566.977 92.5989 567.122C92.5098 567.438 92.5193 567.898 92.8854 568.024C93.8095 568.489 94.7807 568.924 95.5149 569.676C96.7819 571.02 97.5531 572.841 97.5376 574.699C97.557 580.354 97.5409 586.001 97.5544 591.656C94.5672 592.537 91.5685 593.404 88.5367 594.117C86.8667 594.463 85.21 594.909 83.5053 595.027C81.9923 594.852 80.5008 594.438 79.1059 593.83C78.3 593.487 77.5712 592.941 76.6956 592.777C76.1125 592.951 76.5108 593.607 76.6619 593.965C77.3865 595.127 78.3152 596.162 79.342 597.066C80.7659 598.285 82.6467 599.166 84.5588 598.861C87.9781 598.352 91.3284 597.468 94.6469 596.519C92.8026 603.388 89.6323 609.798 86.3371 616.071C83.3479 621.84 79.195 626.921 74.6308 631.511C74.2085 631.92 73.8363 632.565 74.0746 633.154C74.6306 633.226 75.1556 632.953 75.5663 632.606C80.0259 628.869 83.9109 624.502 87.4832 619.923C91.1737 615.091 94.5478 610.014 97.5545 604.727C97.3084 609.565 97.1357 614.407 96.973 619.248C96.5991 629.737 96.7399 640.32 94.6806 650.659C94.8317 652.621 95.3453 654.549 95.8858 656.44C96.1512 657.417 97.0378 658.248 98.0433 658.395C99.0332 658.399 99.6171 657.436 100.049 656.676C100.857 655.103 101.27 653.346 101.423 651.594C101.243 640.815 101.004 630.023 101.448 619.248C101.454 613.615 101.631 607.985 101.912 602.359C105.939 605.767 109.44 610.061 111.005 615.169C111.25 615.764 111.632 616.546 112.388 616.526C113.217 616.437 113.836 615.704 114.107 614.959C114.521 613.79 114.524 612.534 114.503 611.309C114.439 609.835 114.307 608.298 113.61 606.969C113.16 606.091 112.247 605.628 111.503 605.039C108.459 602.918 105.17 601.181 101.912 599.418C101.902 597.81 101.914 596.205 101.912 594.597C105.149 593.752 108.392 592.911 111.604 591.968C112.826 591.708 113.863 590.912 114.688 590.004C115.13 589.537 115.05 588.781 114.587 588.36C113.584 587.374 112.209 586.925 110.921 586.439C110.545 586.243 110.234 586.616 109.918 586.768C107.464 588.356 104.721 589.438 101.912 590.215C101.91 586.913 101.904 583.605 101.912 580.303C101.912 578.488 102.138 576.647 102.814 574.952C103.153 574.299 103.776 573.828 104.036 573.123C104.392 572.367 104.225 571.422 103.623 570.839C102.39 569.562 100.678 568.937 99.0293 568.395C97.1734 567.851 95.3 567.365 93.3995 567.013ZM152.908 574.219C153.17 574.852 153.046 575.538 152.765 576.14C149.805 582.448 146.161 588.425 142.112 594.091C138.276 591.195 134.883 587.766 131.468 584.399C133.735 581.34 135.986 578.26 138.261 575.205C139.64 575.35 141.016 575.666 142.407 575.643C145.586 575.209 148.747 574.688 151.922 574.227C152.246 574.184 152.581 574.207 152.908 574.219ZM158.1 623.142C156.657 623.787 155.234 624.588 153.641 624.785C147.165 625.932 140.652 626.884 134.106 627.533C132.498 627.684 130.894 627.917 129.277 627.895L129.369 627.617C129.286 627.644 129.124 627.691 129.041 627.718C128.39 628.255 127.615 627.79 127.001 627.449C124.642 626.265 122.022 625.74 119.416 625.434C119.463 625.954 119.667 626.482 120.124 626.774C121.345 627.635 122.248 628.85 122.99 630.129C123.9 631.725 124.267 633.549 124.591 635.337C125.455 640.263 125.653 645.272 125.965 650.254C126.056 651.252 125.975 652.274 126.192 653.255C126.765 654.326 127.513 655.323 128.468 656.086C128.593 656.02 128.847 655.891 128.973 655.825C129.727 655.377 130.353 654.762 130.971 654.148C137.1 653.704 143.233 653.24 149.36 652.783C151.621 652.637 153.866 652.209 156.136 652.252C157.438 652.482 158.663 653.009 159.903 653.457C160.574 653.711 161.286 654.041 162.019 653.828C162.166 653.616 162.282 653.394 162.373 653.153C162.667 651.941 161.965 650.792 161.21 649.909C160.859 649.502 160.45 649.16 160.047 648.813C161.641 643.478 163.486 638.212 164.775 632.792C164.92 632.153 165.5 631.738 165.718 631.132C166.023 630.37 165.74 629.535 165.331 628.873C163.655 626.201 160.965 624.353 158.1 623.142ZM156.92 628.039C157.648 627.911 158.675 628.231 158.648 629.126C158.202 635.792 156.855 642.358 155.175 648.813C147.105 649.598 139.042 650.393 130.979 651.232C130.501 644.618 130.006 638.007 129.53 631.393C138.66 630.285 147.79 629.131 156.92 628.039Z" fill="#836C30"/>
<defs>
<filter id="filter0_d_52_508" x="0" y="0" width="257" height="758" filterUnits="userSpaceOnUse" color-interpolation-filters="sRGB">
<feFlood flood-opacity="0" result="BackgroundImageFix"/>
<feColorMatrix in="SourceAlpha" type="matrix" values="0 0 0 0 0 0 0 0 0 0 0 0 0 0 0 0 0 0 127 0" result="hardAlpha"/>
<feOffset dy="4"/>
<feGaussianBlur stdDeviation="2"/>
<feComposite in2="hardAlpha" operator="out"/>
<feColorMatrix type="matrix" values="0 0 0 0 0 0 0 0 0 0 0 0 0 0 0 0 0 0 0.25 0"/>
<feBlend mode="normal" in2="BackgroundImageFix" result="effect1_dropShadow_52_508"/>
<feBlend mode="normal" in="SourceGraphic" in2="effect1_dropShadow_52_508" result="shape"/>
</filter>
<filter id="filter1_d_52_508" x="0" y="0" width="274" height="758" filterUnits="userSpaceOnUse" color-interpolation-filters="sRGB">
<feFlood flood-opacity="0" result="BackgroundImageFix"/>
<feColorMatrix in="SourceAlpha" type="matrix" values="0 0 0 0 0 0 0 0 0 0 0 0 0 0 0 0 0 0 127 0" result="hardAlpha"/>
<feOffset dy="4"/>
<feGaussianBlur stdDeviation="2"/>
<feComposite in2="hardAlpha" operator="out"/>
<feColorMatrix type="matrix" values="0 0 0 0 0 0 0 0 0 0 0 0 0 0 0 0 0 0 0.25 0"/>
<feBlend mode="normal" in2="BackgroundImageFix" result="effect1_dropShadow_52_508"/>
<feBlend mode="normal" in="SourceGraphic" in2="effect1_dropShadow_52_508" result="shape"/>
</filter>
</defs>
</svg>